<svg width="765.12" height="253.28" xmlns="http://www.w3.org/2000/svg">
  <path d="M499.16 249.28c-1.902-.244-2.999-1.22-2.999-2.667 0-1.33.158-1.493 1.438-1.493h1.126l-.098.612c-.48 2.998 5.167 1.977 7.353-1.33.562-.849.532-.945-.179-.587-6.832 3.43-10.055-3.022-4.723-9.456 2.681-3.235 8.631-4.446 9.588-1.952.15.39.314.264.535-.407l.211-.64h1.192c.89 0 1.17.05 1.11.2-5.466 13.434-5.517 13.548-6.856 15.068-1.776 2.017-4.725 3.033-7.698 2.651zm5.81-6.99c1.985-.982 3.934-3.735 4.346-6.138.778-4.546-5.136-3.877-7.468.844-2.136 4.325-.507 7.087 3.122 5.293zm-147.44 2.342c-2.082-.353-2.788-2.046-1.78-4.27 1.066-2.355 2.796-3.27 7.325-3.872 2.788-.371 2.859-.402 3.31-1.452 1.262-2.933-4.444-2.517-5.783.421-.166.365-2.522.626-2.522.28 0-2.747 6.218-5.591 9.4-4.3 2.022.82 2.013 1.831-.061 6.932-1.963 4.826-1.863 4.395-.957 4.122.85-.255.85-.254.397.928-.367.96-.417.992-1.74 1.134-1.083.117-1.657-.135-1.73-.759-.061-.53.038-.531-1.093.023-1.48.726-3.374 1.049-4.766.813zm3.841-2.223a5.785 5.785 0 003.573-3.554c.145-.415.131-.463-.11-.389-.15.047-1.174.191-2.274.32-3.238.381-4.32.978-4.799 2.648-.345 1.204 1.523 1.709 3.61.975zm34.948 2.212c-6.1-1.003-1.473-12.357 5.468-13.42 3.537-.541 5.531 1.034 4.936 3.9l-.186.899h-2.218v-.89c0-4.3-6.094-1.707-7.94 3.378-1.674 4.613 3.268 6.103 6.042 1.823l.512-.791h1.19c1.372 0 1.361-.04.37 1.419-1.886 2.777-5.038 4.197-8.174 3.682zm-80.43-.287c-.456-.056-.881-.152-.944-.215-.087-.088 3.556-9.22 6.702-16.799l.315-.76 3.459.002c6.939.002 8.312.556 8.154 3.288-.118 2.039-1.647 4.435-3.427 5.371-.593.312-.702.437-.611.7.402 1.161.257 2.361-.567 4.695-.925 2.618-.933 2.674-.463 3.174.458.488.453.49-1.307.555l-1.52.056-.05-.586c-.03-.38.236-1.451.76-3.052 1.33-4.056 1.376-4.001-3.252-3.928l-2.862.046-1.538 3.797c-1.082 2.67-1.61 3.79-1.778 3.777-.132-.01-.614-.065-1.07-.12zm12.51-10.44c2.042-1.087 3.235-3.395 2.258-4.371-.523-.524-1.02-.585-4.322-.53l-2.864.046-.824 2c-.454 1.1-.948 2.312-1.1 2.692l-.275.693 3.164-.053c3.07-.05 3.187-.064 3.963-.477zm101.4 10.386c.044-.11 1.212-2.972 2.596-6.36s2.552-6.25 2.595-6.36c.086-.218 2.284-.295 2.286-.08.002.066-1.169 3.016-2.6 6.556l-2.601 6.437-1.177.003c-.879.003-1.158-.047-1.099-.197zm29.561.087c.003-.07 1.178-3.007 2.612-6.527l2.605-6.4 1.15-.047c.631-.026 1.148-.013 1.148.03s-.068.255-.151.474l-.151.398 1.01-.473c2.35-1.1 5.004-.858 5.85.532.77 1.267.674 1.676-1.847 7.86l-1.739 4.266h-1.086c-1.348 0-1.426.499.763-4.906 2.42-5.977 2.433-6.454.173-6.454-2.893 0-4.008 1.274-6.516 7.44l-1.562 3.84-1.132.047c-.623.026-1.13-.01-1.127-.08zm-347.38-3.76c-18.392-28.484.1-68.998 34.56-75.718 43.421-8.467 78.047 37.714 56.045 74.748-.915 1.54-1.616 2.417-1.217 1.522 11.33-25.408-2.056-56.942-28.17-66.362-39.352-14.194-76.416 25.802-60.769 65.574.716 1.82.61 1.874-.45.234zm519.34-.73c-22.05-36.69 11.904-83.011 55.08-75.138 34.801 6.345 53.72 46.21 35.731 75.292-1.116 1.805-1.197 1.714-.403-.457 13.838-37.831-18.155-75.516-56.217-66.219-29.274 7.15-45.127 40.23-32.765 68.365.38.865-.42-.168-1.425-1.843zM435.85 229.4c.004-.11.242-.776.53-1.48l.52-1.28 1.251-.047c.974-.037 1.233-.002 1.168.16-.046.114-.319.8-.605 1.527l-.521 1.32h-1.175c-.837 0-1.173-.058-1.168-.2zm-28.407-7.752c-58.615-.198-111.02-1.37-149.04-3.331-13.672-.705-13.709-.71-7.88-1.015l8.12-.425c84.517-4.42 234.95-4.378 318.96.09 3.3.175 6.954.364 8.12.42 4.167.2 3.391.271-11.16 1.013-42.148 2.148-108.9 3.445-167.12 3.248zm348.56-6.902c0-.103.249-1.07.552-2.147 9.746-34.597 6.496-59.216-9.075-68.738-5.443-3.329-11.052-5.195-27.236-9.063-11.662-2.788-18.98-5.414-23.465-8.423-9.39-6.298-32.388-44.106-63.155-103.83-4.293-8.333-9.608-11.54-19.78-11.939-11.12-.435-19.383 4.38-22.506 13.117-3.225 9.024-4.62 16.697-6.056 33.311-2.172 25.126-7.293 40.403-16.158 48.198-36.043 31.696-148.44 23.432-199.67-14.68l-2.632-1.959-1.288.107c-7.113.59-31.104 3.544-46.328 5.706-78.953 11.213-168.84 31.901-259.92 59.825-2.552.783-7.145 2.184-10.206 3.115-20.458 6.222-39.35 14.574-44.223 19.552-4.004 4.09-5.457 10.627-3.478 15.641.083.211.064.272-.061.194-2.403-1.485-1.371-11.158 1.64-15.377 4.507-6.317 22.031-15.288 47.607-24.372 69.657-24.74 137.45-44.01 203.84-57.95 35.584-7.47 73.648-13.639 111.1-18.005l4.937-.575 1.543 1.26c16.354 13.349 39.08 23.353 66.372 29.219 54.383 11.687 116.81 3.974 126.89-15.677 4.888-9.531 6.877-17.79 8.764-36.383 2.404-23.702 6.063-36.894 12.235-44.116C598.035-3.038 624.84-3.628 637.382 9.63c2.126 2.248 2.657 3.188 8.35 14.78 26.046 53.038 48.027 91.329 55.333 96.389 3.4 2.354 10.122 4.965 19.345 7.512 14.72 4.065 19.158 5.548 24.64 8.235 20.858 10.22 25.593 34.36 13.818 70.448-1.554 4.76-2.858 8.295-2.858 7.743zm-267.96-6.337c-7.125-1.347-10.436-5.7-10.046-13.21.132-2.539-.026-1.708 3.54-18.52l3.029-14.28h2.2c1.266 0 2.2.064 2.2.15 0 .083-1.331 6.4-2.958 14.04-4.082 19.166-4.243 20.8-2.38 24.223 3.023 5.554 15.523 5.424 20.798-.215 3.384-3.618 3.822-4.974 8.072-25.037l2.788-13.159 2.2-.002c1.515-.002 2.2.054 2.2.178 0 1.038-6.36 30.066-6.978 31.845-3.668 10.572-13.433 16.109-24.665 13.986zm-108.94-.396c-4.996-1.353-6.896-5.295-5.104-10.591 1.756-5.191 5.749-7.374 15.92-8.706 8.234-1.078 8.636-1.244 9.463-3.918 3.012-9.747-13.904-10.021-17.193-.278-.084.247-.334.28-2.11.28h-2.017l.11-.36c3.87-12.741 26.374-14.813 25.63-2.36-.05.866-.843 4.944-2.179 11.229-1.154 5.428-2.099 10.022-2.099 10.21 0 1.207.927 1.56 2.707 1.03 1.058-.313 1.01-.418.626 1.388l-.325 1.53-1.1.286c-3.82.99-5.907-.066-5.908-2.992v-1.4l-.943.76c-4.224 3.402-10.998 5.105-15.477 3.893zm7.58-3.455c6.749-1.28 11.56-7.083 11.56-13.94 0-.022-.395.095-.879.262-1.522.524-3.747.928-6.56 1.193-6.618.624-8.8 1.254-10.861 3.138-5.54 5.062-1.343 10.88 6.74 9.347zm28.84 3.512c-4.243-.914-6.87-4.282-6.877-8.817-.003-2.103-.145-1.973 2.152-1.973h1.96l.091 1.16c.685 8.66 15.611 8.764 17.24.12.574-3.052-1.554-4.501-8.805-5.996-7.832-1.615-10.294-4.649-8.418-10.373 3.818-11.647 23.618-10.991 23.618.783v1.346h-3.952l-.097-1.256c-.588-7.62-14.054-7.5-15.656.14-.598 2.849 1.14 4.242 7.305 5.855 8.055 2.107 10.11 3.606 10.285 7.5.353 7.798-9.148 13.6-18.845 11.51zm-89.826-1.87c-.053-.726-.49-10.104-.973-20.84-.482-10.736-.922-20.294-.978-21.24l-.103-1.72h4.521v.873c0 1.046 1.259 36.926 1.319 37.583.03.338 2.496-4.651 9.393-19.004l9.351-19.46 2.489.043 2.488.044.97 19.44.969 19.44.595-1.28 9.037-19.44 8.441-18.16 2.274-.044c2.769-.054 4.082-3.596-8.394 22.644l-10.669 22.44h-4.865l-.102-1.48c-.056-.814-.495-9.4-.975-19.08-.48-9.68-.893-17.96-.917-18.4-.043-.774-.318-.22-9.48 19.08l-9.437 19.88h-4.858zm113.87.885c.046-.245 2.197-10.4 4.78-22.564l4.695-22.12 1.96-.001c1.466-.002 1.958.049 1.953.199-.004.11-.788 3.836-1.742 8.28-1.974 9.194-1.897 8.41-.729 7.459 9.355-7.62 21.037-4.79 19.946 4.834-.17 1.494-4.86 24.112-5.037 24.29-.037.037-.93.047-1.984.022l-1.916-.045 2.381-11.12c2.657-12.402 2.819-13.575 2.145-15.511-1.6-4.6-10.092-4.315-14.83.497-2.691 2.733-3.04 3.76-5.896 17.322l-1.854 8.812-1.978.045-1.978.045.084-.445z"/>
</svg>
